<svg version="1.1" id="Layer_1" xmlns="http://www.w3.org/2000/svg" xmlns:xlink="http://www.w3.org/1999/xlink" x="0px" y="0px"
	 width="100%" viewBox="0 0 169 190"  xml:space="preserve">
<path fill="#FAFAFA" opacity="1.000000" stroke="none" 
	d="
M98.000000,191.000000 
	C65.333336,191.000000 33.166672,191.000000 1.000004,191.000000 
	C1.000003,127.666672 1.000003,64.333344 1.000001,1.000013 
	C57.333324,1.000009 113.666649,1.000009 169.999969,1.000004 
	C169.999985,64.333321 169.999985,127.666634 170.000000,190.999969 
	C146.166672,191.000000 122.333336,191.000000 98.000000,191.000000 
M122.012901,86.475067 
	C121.907349,86.335747 121.801788,86.196419 121.403580,85.420052 
	C118.402809,84.742271 115.312920,83.234673 112.418327,83.545547 
	C104.409134,84.405739 100.284149,90.949303 101.049065,99.917496 
	C101.164803,101.274597 99.870705,102.751938 99.228737,104.173660 
	C98.145256,103.180412 96.976372,102.261749 96.015503,101.161423 
	C95.557602,100.637047 95.495331,99.767197 95.203606,98.905411 
	C89.862610,103.563782 88.775627,107.910538 91.261749,114.221405 
	C92.591347,113.586197 93.867157,112.574821 95.236755,112.425896 
	C96.882484,112.246948 98.608063,112.802246 100.299072,113.039635 
	C99.436203,114.361977 98.768135,115.889557 97.653915,116.947052 
	C96.607704,117.940002 94.982071,118.291443 93.797600,119.174828 
	C86.925110,124.300331 83.916824,131.244507 85.095505,139.675278 
	C86.050957,146.509293 89.399727,151.944977 94.302101,154.417084 
	C99.138748,150.217880 103.041443,146.649429 107.202202,143.412720 
	C107.821335,142.931091 109.655441,144.011307 110.927467,144.368958 
	C110.498039,145.628754 110.317764,147.073410 109.562431,148.091400 
	C108.927811,148.946716 107.573792,149.233826 106.623634,149.895142 
	C101.149857,153.704880 99.336357,160.841904 102.308464,166.724258 
	C105.318718,172.682114 112.683128,175.662292 118.848618,173.027161 
	C120.246826,172.429565 121.920761,170.345551 121.927299,168.938568 
	C122.054153,141.621826 121.951996,114.304031 122.012901,86.475067 
M139.364105,83.870789 
	C130.566406,81.497841 127.155655,83.942764 127.179054,92.658165 
	C127.243866,116.802513 127.331932,140.946808 127.398987,165.091156 
	C127.420586,172.870331 132.096848,175.989594 139.578995,173.227509 
	C144.952011,171.244019 148.146820,167.335953 148.607162,161.761078 
	C149.086990,155.950409 146.319138,151.666397 141.177338,148.698807 
	C139.914932,147.970215 139.455734,145.849945 138.627274,144.369476 
	C140.339218,144.247162 142.666229,143.352264 143.654465,144.138992 
	C147.514206,147.211792 150.950348,150.816666 154.991379,154.647919 
	C161.424561,151.083908 164.732819,144.352798 164.850891,136.341614 
	C164.968811,128.339249 160.966766,122.122429 154.047684,117.945198 
	C153.207397,117.437881 152.041321,117.321777 151.405106,116.660088 
	C150.481064,115.699028 149.901840,114.406456 149.175552,113.255264 
	C150.584564,112.861145 152.081955,111.965233 153.381271,112.194046 
	C155.194290,112.513313 156.859344,113.672966 158.627991,114.491638 
	C160.806854,107.002800 159.559784,102.739548 154.186615,98.745232 
	C154.009399,99.397995 154.021454,100.203148 153.626740,100.644524 
	C152.544327,101.854858 151.290939,102.912315 150.105240,104.030289 
	C149.660385,102.417679 148.637726,100.715202 148.872101,99.208237 
	C149.817917,93.127350 146.873459,87.713524 139.364105,83.870789 
M36.309814,132.493942 
	C36.309814,103.717606 36.309814,74.941261 36.309814,45.836971 
	C42.053593,45.836971 47.211388,45.654850 52.349445,45.895023 
	C56.405167,46.084610 58.148457,44.718361 57.929798,40.470402 
	C57.658344,35.196812 57.864738,29.898626 57.864738,24.405313 
	C79.423286,24.405313 100.491516,24.405313 122.073212,24.405313 
	C122.073212,42.021294 122.073212,59.401337 122.073212,76.922157 
	C125.826500,77.163422 127.472580,75.847534 127.471085,72.464836 
	C127.464027,56.467407 127.493149,40.469917 127.540253,24.472542 
	C127.551170,20.762728 126.506180,18.849234 122.079071,18.896198 
	C100.584908,19.124207 79.086388,18.925394 57.591202,19.099237 
	C55.536087,19.115856 53.041348,20.177870 51.524261,21.587250 
	C45.425510,27.253010 39.473080,33.100334 33.825493,39.212212 
	C32.241764,40.926140 31.097971,43.770470 31.085695,46.103294 
	C30.919092,77.764061 30.976923,109.426079 31.003477,141.087769 
	C31.013342,152.848267 31.041958,152.846100 43.031895,152.843811 
	C53.696911,152.841766 64.363800,152.939606 75.024620,152.728668 
	C76.382248,152.701797 77.708206,151.074493 79.048836,150.188629 
	C77.734001,149.293182 76.480301,147.757706 75.092606,147.625183 
	C71.294014,147.262421 67.439034,147.486099 63.606377,147.485001 
	C54.658813,147.482407 45.711254,147.484161 36.309723,147.484161 
	C36.309723,142.421310 36.309723,137.955643 36.309814,132.493942 
M68.500336,61.946156 
	C81.294594,61.945045 94.090279,62.031120 106.881172,61.823296 
	C108.342949,61.799545 109.777977,60.130543 111.225410,59.224396 
	C109.825661,58.262806 108.434494,56.478848 107.024849,56.464111 
	C88.583321,56.271385 70.138390,56.256203 51.697075,56.453743 
	C50.127144,56.470558 48.576897,58.324825 47.017506,59.325500 
	C48.528137,60.199062 49.999542,61.733532 51.556530,61.825935 
	C56.854961,62.140388 62.183590,61.946159 68.500336,61.946156 
M83.500107,72.410568 
	C72.702507,72.411270 61.903175,72.320709 51.109474,72.526138 
	C49.732758,72.552345 48.385433,74.123123 47.024490,74.978348 
	C48.401760,75.977592 49.770123,77.832344 51.157642,77.846794 
	C69.760712,78.040527 88.367035,78.038223 106.970360,77.857689 
	C108.394745,77.843872 109.802536,76.120117 111.218048,75.191170 
	C109.787323,74.262589 108.383789,72.584549 106.921288,72.531471 
	C99.455940,72.260536 91.975357,72.409286 83.500107,72.410568 
M63.505806,93.959381 
	C71.001503,93.962662 78.501678,94.098633 85.988747,93.846100 
	C87.326088,93.800995 88.609154,92.146919 89.917282,91.235764 
	C88.756218,90.358887 87.606911,88.738518 86.432274,88.719948 
	C74.442200,88.530380 62.446865,88.528587 50.456806,88.716782 
	C49.313259,88.734734 48.195480,90.394569 47.065739,91.292175 
	C48.215721,92.180801 49.310902,93.735771 50.525749,93.835678 
	C54.496655,94.162262 58.511154,93.958748 63.505806,93.959381 
z"/>
<path fill="#161616" opacity="1.000000" stroke="none" 
	d="
M139.752716,83.935211 
	C146.873459,87.713524 149.817917,93.127350 148.872101,99.208237 
	C148.637726,100.715202 149.660385,102.417679 150.105240,104.030289 
	C151.290939,102.912315 152.544327,101.854858 153.626740,100.644524 
	C154.021454,100.203148 154.009399,99.397995 154.186615,98.745232 
	C159.559784,102.739548 160.806854,107.002800 158.627991,114.491638 
	C156.859344,113.672966 155.194290,112.513313 153.381271,112.194046 
	C152.081955,111.965233 150.584564,112.861145 149.175552,113.255264 
	C149.901840,114.406456 150.481064,115.699028 151.405106,116.660088 
	C152.041321,117.321777 153.207397,117.437881 154.047684,117.945198 
	C160.966766,122.122429 164.968811,128.339249 164.850891,136.341614 
	C164.732819,144.352798 161.424561,151.083908 154.991379,154.647919 
	C150.950348,150.816666 147.514206,147.211792 143.654465,144.138992 
	C142.666229,143.352264 140.339218,144.247162 138.627274,144.369476 
	C139.455734,145.849945 139.914932,147.970215 141.177338,148.698807 
	C146.319138,151.666397 149.086990,155.950409 148.607162,161.761078 
	C148.146820,167.335953 144.952011,171.244019 139.578995,173.227509 
	C132.096848,175.989594 127.420586,172.870331 127.398987,165.091156 
	C127.331932,140.946808 127.243866,116.802513 127.179054,92.658165 
	C127.155655,83.942764 130.566406,81.497841 139.752716,83.935211 
z"/>
<path fill="#131313" opacity="1.000000" stroke="none" 
	d="
M121.896851,86.986450 
	C121.951996,114.304031 122.054153,141.621826 121.927299,168.938568 
	C121.920761,170.345551 120.246826,172.429565 118.848618,173.027161 
	C112.683128,175.662292 105.318718,172.682114 102.308464,166.724258 
	C99.336357,160.841904 101.149857,153.704880 106.623634,149.895142 
	C107.573792,149.233826 108.927811,148.946716 109.562431,148.091400 
	C110.317764,147.073410 110.498039,145.628754 110.927460,144.368958 
	C109.655441,144.011307 107.821335,142.931091 107.202202,143.412720 
	C103.041443,146.649429 99.138748,150.217880 94.302101,154.417084 
	C89.399727,151.944977 86.050957,146.509293 85.095505,139.675278 
	C83.916824,131.244507 86.925110,124.300331 93.797600,119.174828 
	C94.982071,118.291443 96.607704,117.940002 97.653915,116.947052 
	C98.768135,115.889557 99.436203,114.361977 100.299072,113.039635 
	C98.608063,112.802246 96.882484,112.246948 95.236755,112.425896 
	C93.867157,112.574821 92.591347,113.586197 91.261749,114.221405 
	C88.775627,107.910538 89.862610,103.563782 95.203606,98.905411 
	C95.495331,99.767197 95.557602,100.637047 96.015503,101.161423 
	C96.976372,102.261749 98.145256,103.180412 99.228729,104.173660 
	C99.870705,102.751938 101.164803,101.274597 101.049065,99.917496 
	C100.284149,90.949303 104.409134,84.405739 112.418327,83.545547 
	C115.312920,83.234673 118.402809,84.742271 121.438141,85.855782 
	C121.366241,86.640076 121.507622,86.871719 121.896851,86.986450 
z"/>
<path fill="#161616" opacity="1.000000" stroke="none" 
	d="
M36.309769,132.991959 
	C36.309723,137.955643 36.309723,142.421310 36.309723,147.484161 
	C45.711254,147.484161 54.658813,147.482407 63.606377,147.485001 
	C67.439034,147.486099 71.294014,147.262421 75.092606,147.625183 
	C76.480301,147.757706 77.734001,149.293182 79.048836,150.188629 
	C77.708206,151.074493 76.382248,152.701797 75.024620,152.728668 
	C64.363800,152.939606 53.696911,152.841766 43.031895,152.843811 
	C31.041958,152.846100 31.013342,152.848267 31.003477,141.087769 
	C30.976923,109.426079 30.919092,77.764061 31.085695,46.103294 
	C31.097971,43.770470 32.241764,40.926140 33.825493,39.212212 
	C39.473080,33.100334 45.425510,27.253010 51.524261,21.587250 
	C53.041348,20.177870 55.536087,19.115856 57.591202,19.099237 
	C79.086388,18.925394 100.584908,19.124207 122.079071,18.896198 
	C126.506180,18.849234 127.551170,20.762728 127.540253,24.472542 
	C127.493149,40.469917 127.464027,56.467407 127.471085,72.464836 
	C127.472580,75.847534 125.826500,77.163422 122.073212,76.922157 
	C122.073212,59.401337 122.073212,42.021294 122.073212,24.405313 
	C100.491516,24.405313 79.423286,24.405313 57.864738,24.405313 
	C57.864738,29.898626 57.658344,35.196812 57.929798,40.470402 
	C58.148457,44.718361 56.405167,46.084610 52.349445,45.895023 
	C47.211388,45.654850 42.053593,45.836971 36.309814,45.836971 
	C36.309814,74.941261 36.309814,103.717606 36.309769,132.991959 
z"/>
<path fill="#2A2A2A" opacity="1.000000" stroke="none" 
	d="
M68.000511,61.946152 
	C62.183590,61.946159 56.854961,62.140388 51.556530,61.825935 
	C49.999542,61.733532 48.528137,60.199062 47.017506,59.325500 
	C48.576897,58.324825 50.127144,56.470558 51.697075,56.453743 
	C70.138390,56.256203 88.583321,56.271385 107.024849,56.464111 
	C108.434494,56.478848 109.825661,58.262806 111.225410,59.224396 
	C109.777977,60.130543 108.342949,61.799545 106.881172,61.823296 
	C94.090279,62.031120 81.294594,61.945045 68.000511,61.946152 
z"/>
<path fill="#2A2A2A" opacity="1.000000" stroke="none" 
	d="
M84.000107,72.410889 
	C91.975357,72.409286 99.455940,72.260536 106.921288,72.531471 
	C108.383789,72.584549 109.787323,74.262589 111.218048,75.191170 
	C109.802536,76.120117 108.394745,77.843872 106.970360,77.857689 
	C88.367035,78.038223 69.760712,78.040527 51.157642,77.846794 
	C49.770123,77.832344 48.401760,75.977592 47.024490,74.978348 
	C48.385433,74.123123 49.732758,72.552345 51.109474,72.526138 
	C61.903175,72.320709 72.702507,72.411270 84.000107,72.410889 
z"/>
<path fill="#171717" opacity="1.000000" stroke="none" 
	d="
M63.007347,93.959236 
	C58.511154,93.958748 54.496655,94.162262 50.525749,93.835678 
	C49.310902,93.735771 48.215721,92.180801 47.065739,91.292175 
	C48.195480,90.394569 49.313259,88.734734 50.456806,88.716782 
	C62.446865,88.528587 74.442200,88.530380 86.432274,88.719948 
	C87.606911,88.738518 88.756218,90.358887 89.917282,91.235764 
	C88.609154,92.146919 87.326088,93.800995 85.988747,93.846100 
	C78.501678,94.098633 71.001503,93.962662 63.007347,93.959236 
z"/>
<path fill="#090708" opacity="1.000000" stroke="none" 
	d="
M121.954880,86.730759 
	C121.507622,86.871719 121.366241,86.640076 121.584473,86.174301 
	C121.801788,86.196419 121.907349,86.335747 121.954880,86.730759 
z"/>
</svg>